<svg width="68" height="6" viewBox="0 0 68 6" fill="none" xmlns="http://www.w3.org/2000/svg">
<path d="M5.99717 0.0235716H5.44939C5.39981 0.0235716 5.33606 0.0377369 5.28884 0.0849587C5.24162 0.13218 5.22745 0.19593 5.22745 0.245513V4.44589L1.57957 0.106209C1.53707 0.0660709 1.49693 0.0259327 1.41665 0.0235716H0.212498C0.162915 0.0235716 0.0968047 0.040099 0.0543051 0.0896818C0.0118054 0.139265 0 0.198291 0 0.245513V5.56977C0 5.61699 0.0141665 5.67602 0.0590272 5.72324C0.103888 5.77046 0.165276 5.78463 0.212498 5.78227H0.760271C0.805131 5.78227 0.86652 5.77046 0.913742 5.72324C0.958602 5.67838 0.972769 5.61699 0.972769 5.56977V0.899536L5.05273 5.69491C5.09051 5.75866 5.16134 5.78227 5.2062 5.78227C5.21092 5.78227 5.21565 5.78227 5.21801 5.78227H5.99953C6.04675 5.78227 6.10578 5.77046 6.153 5.72324C6.20022 5.67838 6.21203 5.61699 6.21203 5.56977V0.245513C6.21203 0.198291 6.20258 0.139265 6.15772 0.0896818C6.11286 0.040099 6.04911 0.0212105 5.99953 0.0235716H5.99717Z" fill="black"/>
<path d="M12.1287 0.0236206H7.49863C7.44905 0.0236206 7.38294 0.0401479 7.34044 0.0897308C7.29558 0.139314 7.28613 0.19834 7.28613 0.245562V5.56982C7.28613 5.61704 7.29794 5.67607 7.34516 5.72329C7.39238 5.77051 7.45141 5.78468 7.49863 5.78232H12.1358C12.1807 5.78232 12.2421 5.76343 12.2822 5.71857C12.3247 5.67135 12.3318 5.61468 12.3318 5.56982V5.01496C12.3318 4.9701 12.3247 4.9158 12.2822 4.86621C12.2397 4.81663 12.1759 4.8001 12.1311 4.80246H8.2589V3.31734H12.0012C12.0508 3.3197 12.1193 3.29609 12.1571 3.24651C12.1972 3.19692 12.2043 3.14262 12.2043 3.09776V2.55235C12.2043 2.50513 12.1972 2.45318 12.1571 2.4036C12.1193 2.35166 12.0508 2.3304 12.0012 2.33277H8.2589V1.01292H12.1311C12.1807 1.01292 12.2491 0.991667 12.2893 0.939723C12.3271 0.89014 12.3341 0.835835 12.3341 0.790975V0.245562C12.3341 0.200701 12.3271 0.146397 12.2893 0.0968138C12.2491 0.0448698 12.1807 0.0236206 12.1311 0.0236206H12.1287Z" fill="black"/>
<path d="M22.8057 0.0236206H22.1658C22.0006 0.0519537 21.9958 0.141674 21.9392 0.231396L20.2156 4.56163L18.5439 0.231396C18.4849 0.136952 18.4731 0.0472315 18.3149 0.0236206H17.6727C17.5145 0.0472315 17.5027 0.136953 17.4484 0.219591L15.7814 4.55691L14.0791 0.238479C14.0201 0.141674 14.0154 0.0519537 13.8501 0.0236206H13.2173C13.1677 0.0236206 13.104 0.0377858 13.0568 0.0850076C13.0095 0.132229 12.9954 0.195979 12.9954 0.245562V0.297506L15.1581 5.63121C15.1746 5.72329 15.2809 5.78468 15.3517 5.78468C15.3588 5.78468 15.3635 5.78468 15.3683 5.78468H16.2253C16.367 5.76815 16.393 5.68787 16.4449 5.61468L16.452 5.60524L18.0056 1.46861L19.5875 5.58871C19.6536 5.68315 19.6466 5.75634 19.8095 5.78704H20.624C20.7043 5.79412 20.8035 5.71857 20.82 5.64537L23.0135 0.302229V0.247923C23.0135 0.203063 23.0064 0.148758 22.9662 0.0991754C22.9285 0.0472314 22.86 0.0259804 22.8104 0.0259804L22.8057 0.0236206Z" fill="black"/>
<path d="M28.7816 0.0236206H24.1515C24.1019 0.0236206 24.0358 0.0401479 23.9933 0.0897308C23.9484 0.139314 23.939 0.19834 23.939 0.245562V5.57218C23.939 5.61704 23.9508 5.67843 23.998 5.72329C24.0429 5.77051 24.1042 5.78468 24.1515 5.78232H24.7016C24.7488 5.78232 24.8078 5.76815 24.8527 5.72329C24.8976 5.67843 24.9117 5.61704 24.9117 5.57218V3.3197H28.6541C28.7036 3.32206 28.7698 3.29845 28.8123 3.24887C28.85 3.19928 28.8571 3.14498 28.8571 3.10012V2.55235C28.8571 2.50513 28.85 2.45318 28.8123 2.4036C28.7721 2.35166 28.7036 2.3304 28.6541 2.33277H24.9117V1.01528H28.7839C28.8335 1.01528 28.902 0.994028 28.9398 0.942084C28.9799 0.892501 28.987 0.838195 28.987 0.793334V0.247923C28.987 0.203063 28.9799 0.148758 28.9398 0.0991754C28.902 0.0472314 28.8335 0.0259804 28.7839 0.0259804L28.7816 0.0236206Z" fill="black"/>
<path d="M35.7611 3.10955C35.6643 2.90885 35.5344 2.74594 35.3762 2.6326C35.4588 2.54052 35.5202 2.43191 35.5675 2.30441C35.6383 2.10844 35.6713 1.88178 35.6713 1.62206C35.6713 1.10734 35.5037 0.687068 35.159 0.417903C34.8166 0.146378 34.3232 0.0212402 33.6904 0.0212402H29.8395C29.7899 0.0212402 29.7238 0.0377676 29.6813 0.0873504C29.6364 0.136933 29.627 0.195961 29.627 0.243183V5.56744C29.627 5.61466 29.6388 5.67369 29.686 5.72091C29.7332 5.76813 29.7922 5.7823 29.8395 5.77994H30.3943C30.4415 5.77994 30.5006 5.76813 30.5478 5.72091C30.595 5.67605 30.6068 5.61466 30.6068 5.56744V3.31732H33.9926C34.2098 3.31732 34.3869 3.33857 34.5239 3.37871C34.6561 3.41649 34.7529 3.47551 34.819 3.55107C34.8544 3.60301 34.8969 3.69273 34.9276 3.81315C34.9583 3.92884 34.9748 4.07759 34.9748 4.25939C34.9748 4.3137 34.9725 4.39162 34.9654 4.4955C34.9583 4.59939 34.9512 4.72453 34.937 4.87328C34.9205 5.18494 34.9111 5.41397 34.9111 5.5698C34.9111 5.61702 34.9229 5.67605 34.9701 5.72327C35.0173 5.77049 35.0763 5.78466 35.1236 5.7823H35.7186C35.7658 5.7823 35.8295 5.75869 35.8626 5.71146C35.9004 5.66188 35.9051 5.6123 35.9051 5.5698V4.00912C35.9051 3.84148 35.8956 3.68093 35.8744 3.53218C35.8531 3.37635 35.813 3.23468 35.754 3.11191L35.7611 3.10955ZM34.6986 1.65984C34.6868 2.09428 34.4672 2.27844 33.8014 2.29733H30.6068V1.04831H33.8368C34.4766 1.0672 34.6868 1.23956 34.6986 1.65984Z" fill="black"/>
<path d="M43.3354 1.29388C43.2669 1.03888 43.1607 0.828741 43.0167 0.654021C42.8726 0.481661 42.6979 0.34944 42.4925 0.262079C42.0888 0.0802754 41.4702 0 40.6178 0H39.7773C39.0146 0 38.4692 0.0495821 38.115 0.165276H38.1056L38.0867 0.172358C37.8648 0.245552 37.6735 0.351802 37.5153 0.488745C37.3595 0.623327 37.2344 0.786243 37.1423 0.977491C37.0502 1.17346 36.9935 1.40721 36.9605 1.68818C36.9274 1.96679 36.9109 2.29026 36.9109 2.65859C36.9109 3.10483 36.9203 3.4826 36.9416 3.78719C36.9628 4.09177 36.9935 4.3326 37.0455 4.51676C37.1871 4.99843 37.4752 5.35023 37.8931 5.53203C38.2709 5.70911 38.8895 5.78467 39.7773 5.78703H40.6178C41.0027 5.78703 41.3308 5.77286 41.6047 5.74217C41.8763 5.71147 42.1006 5.67133 42.2824 5.61703L42.3768 5.58634V5.57689C42.5515 5.51314 42.7074 5.42342 42.8419 5.30773C43.0001 5.17315 43.1276 5.00787 43.2221 4.81898C43.3118 4.61829 43.3732 4.37982 43.4086 4.09885C43.444 3.82024 43.4629 3.49913 43.4629 3.13553C43.4629 2.68928 43.4511 2.31151 43.4275 2.00693C43.4039 1.70235 43.3756 1.4686 43.3378 1.29624L43.3354 1.29388ZM42.4972 2.65623V3.13316C42.4972 3.42594 42.4854 3.67385 42.4618 3.88163C42.4406 4.08468 42.3981 4.23815 42.3461 4.33732C42.2658 4.53801 42.1336 4.64898 41.881 4.71037C41.6779 4.76232 41.2458 4.79301 40.6107 4.79301H39.7773C39.135 4.79301 38.7006 4.76232 38.4999 4.71037C38.2496 4.65134 38.1056 4.53565 38.0182 4.3444C37.9214 4.12718 37.8648 3.71399 37.8648 3.13316V2.65623C37.8648 2.0754 37.9214 1.66457 38.0182 1.44262C38.1032 1.24429 38.2425 1.1286 38.4881 1.06957C38.6959 1.01527 39.1327 0.984574 39.7773 0.986935H40.6107C41.2529 0.986935 41.6874 1.01763 41.8857 1.06957C42.1431 1.13096 42.2706 1.24193 42.339 1.43318V1.44262L42.3461 1.45207C42.3981 1.54887 42.4406 1.70234 42.4618 1.90776C42.4854 2.11553 42.4972 2.36581 42.4972 2.65623Z" fill="black"/>
<path d="M52.56 0.103878C52.527 0.051934 52.4561 0.0212407 52.4042 0.0236018H51.226C51.1788 0.0236018 51.1245 0.0283235 51.0678 0.0802675L51.056 0.0920736L48.5462 4.37981L46.1001 0.0637399L46.0623 0.0448508C46.0293 0.0283231 45.9915 0.0212402 45.9608 0.0212402H44.7118C44.6622 0.0212402 44.5984 0.0377676 44.5536 0.0873504C44.5111 0.136933 44.4993 0.195961 44.4993 0.243183V5.56744C44.4993 5.61466 44.5111 5.67369 44.5583 5.72091C44.6055 5.76813 44.6669 5.77994 44.7118 5.77994H45.2761C45.3233 5.77994 45.3823 5.76813 45.4295 5.72091C45.4768 5.67605 45.4886 5.61466 45.4886 5.56744V0.970397L48.2156 5.7398L48.2534 5.75869C48.2794 5.77285 48.3124 5.7823 48.3478 5.7823H48.7209C48.7658 5.7823 48.8224 5.77758 48.8767 5.72563L48.8885 5.71383L51.6392 0.956231V5.5698C51.6392 5.61702 51.651 5.67605 51.6982 5.72327C51.7455 5.77049 51.8045 5.7823 51.8517 5.7823H52.4066C52.4066 5.7823 52.4113 5.7823 52.4136 5.7823C52.4609 5.7823 52.5223 5.75869 52.56 5.70911C52.5954 5.66188 52.6025 5.6123 52.6025 5.56744V0.243183C52.6025 0.198323 52.5978 0.151101 52.5624 0.101518L52.56 0.103878Z" fill="black"/>
<path d="M65.8772 5.89182V0H67.1642V5.89182H65.8772Z" fill="black"/>
<path d="M63.94 6.00001C63.724 6.00001 63.541 5.93899 63.391 5.81693C63.241 5.69488 63.166 5.52012 63.166 5.29266C63.166 5.05965 63.241 4.87657 63.391 4.74342C63.547 4.61028 63.73 4.5437 63.94 4.5437C64.15 4.5437 64.33 4.61028 64.48 4.74342C64.63 4.87102 64.705 5.05133 64.705 5.28434C64.705 5.51735 64.63 5.69488 64.48 5.81693C64.33 5.93899 64.15 6.00001 63.94 6.00001Z" fill="black"/>
<path d="M56.009 5.89182L58.493 0H59.933L62.39 5.89182H61.004L60.608 4.88488H57.791L57.395 5.89182H56.009ZM58.205 3.81137H60.203L59.213 1.26491L58.205 3.81137Z" fill="black"/>
</svg>
