<svg width="24" height="24" viewBox="0 0 24 24" fill="none" xmlns="http://www.w3.org/2000/svg">
<g clip-path="url(#clip0_88_751)">
<path d="M17 2L5.771 2C5.34319 1.99992 4.92663 2.13702 4.58249 2.39116C4.23835 2.6453 3.98478 3.0031 3.859 3.412L1.09 12.412C0.998031 12.711 0.977481 13.0274 1.03 13.3358C1.08252 13.6442 1.20665 13.9359 1.39241 14.1876C1.57817 14.4393 1.82038 14.6439 2.09958 14.785C2.37878 14.9261 2.68718 14.9997 3 15L10 15L10 19C10 21.373 11.251 22.494 12.764 22.86C12.9116 22.8947 13.0652 22.8955 13.2132 22.8625C13.3611 22.8295 13.4998 22.7634 13.6186 22.6692C13.7375 22.5751 13.8335 22.4553 13.8996 22.3188C13.9656 22.1823 13.9999 22.0326 14 21.881L14 18L17 14.1876" fill="#D9D8D7"/>
<path d="M17 2L5.771 2C5.34319 1.99992 4.92663 2.13702 4.58249 2.39116C4.23835 2.6453 3.98478 3.0031 3.859 3.412L1.09 12.412C0.998031 12.711 0.977481 13.0274 1.03 13.3358C1.08252 13.6442 1.20665 13.9359 1.39241 14.1876C1.57817 14.4393 1.82038 14.6439 2.09958 14.785C2.37878 14.9261 2.68718 14.9997 3 15L10 15L10 19C10 21.373 11.251 22.494 12.764 22.86C12.9116 22.8947 13.0652 22.8955 13.2132 22.8625C13.3611 22.8295 13.4998 22.7634 13.6186 22.6692C13.7375 22.5751 13.8335 22.4553 13.8996 22.3188C13.9656 22.1823 13.9999 22.0326 14 21.881L14 18L17 14.1876" stroke="#454545" stroke-width="1.5" stroke-linecap="round" stroke-linejoin="round"/>
<path d="M19 14L23 14L23 2L19 2L19 14Z" fill="#A8AAE7" stroke="#454545" stroke-width="1.5" stroke-linecap="round" stroke-linejoin="round"/>
</g>
<defs>
<clipPath id="clip0_88_751">
<rect width="24" height="24" fill="white" transform="translate(24 24) rotate(-180)"/>
</clipPath>
</defs>
</svg>
