<svg width="24" height="24" viewBox="0 0 24 24" fill="none" xmlns="http://www.w3.org/2000/svg">
<path d="M8 22H18.229C18.6568 22.0001 19.0734 21.863 19.4175 21.6088C19.7616 21.3547 20.0152 20.9969 20.141 20.588L22.91 11.588C23.002 11.289 23.0225 10.9726 22.97 10.6642C22.9175 10.3558 22.7934 10.0641 22.6076 9.81237C22.4218 9.56067 22.1796 9.35606 21.9004 9.21497C21.6212 9.07388 21.3128 9.00025 21 9H14V5C14 2.627 12.749 1.506 11.236 1.14C11.0884 1.10533 10.9348 1.10448 10.7868 1.13752C10.6389 1.17055 10.5002 1.23661 10.3814 1.33076C10.2625 1.42491 10.1665 1.54471 10.1004 1.68121C10.0344 1.8177 10.0001 1.96736 10 2.119V6L7.5 9.81237" stroke="#454545" stroke-width="1.5" stroke-linecap="round" stroke-linejoin="round"/>
<path d="M5 10H1V22H5V10Z" stroke="#454545" stroke-width="1.5" stroke-linecap="round" stroke-linejoin="round"/>
</svg>
