<svg width="24" height="24" viewBox="0 0 24 24" fill="none" xmlns="http://www.w3.org/2000/svg">
<path d="M14.25 18C15.6424 18 16.9777 17.4469 17.9623 16.4623C18.9469 15.4777 19.5 14.1424 19.5 12.75C19.5 11.3576 18.9469 10.0223 17.9623 9.03769C16.9777 8.05312 15.6424 7.5 14.25 7.5C12.8576 7.5 11.5223 8.05312 10.5377 9.03769C9.55312 10.0223 9 11.3576 9 12.75C9 14.1424 9.55312 15.4777 10.5377 16.4623C11.5223 17.4469 12.8576 18 14.25 18Z" stroke="#454545" stroke-width="1.5" stroke-linecap="round" stroke-linejoin="round"/>
<path d="M19.5 6L18.415 3.829C18.2904 3.57982 18.0988 3.37028 17.8618 3.22385C17.6247 3.07743 17.3516 2.99992 17.073 3H11.427C11.1484 2.99992 10.8753 3.07743 10.6382 3.22385C10.4012 3.37028 10.2096 3.57982 10.085 3.829L9 6H2.25C1.85218 6 1.47064 6.15804 1.18934 6.43934C0.908035 6.72064 0.75 7.10218 0.75 7.5V19.5C0.75 19.8978 0.908035 20.2794 1.18934 20.5607C1.47064 20.842 1.85218 21 2.25 21H21.75C22.1478 21 22.5294 20.842 22.8107 20.5607C23.092 20.2794 23.25 19.8978 23.25 19.5V7.5C23.25 7.10218 23.092 6.72064 22.8107 6.43934C22.5294 6.15804 22.1478 6 21.75 6H19.5Z" stroke="#454545" stroke-width="1.5" stroke-linecap="round" stroke-linejoin="round"/>
<path d="M4.125 9.75C4.02554 9.75 3.93016 9.71049 3.85983 9.64017C3.78951 9.56984 3.75 9.47446 3.75 9.375C3.75 9.27554 3.78951 9.18016 3.85983 9.10983C3.93016 9.03951 4.02554 9 4.125 9" stroke="#454545" stroke-width="1.5"/>
<path d="M4.125 9.75C4.22446 9.75 4.31984 9.71049 4.39016 9.64017C4.46049 9.56984 4.5 9.47446 4.5 9.375C4.5 9.27554 4.46049 9.18016 4.39016 9.10983C4.31984 9.03951 4.22446 9 4.125 9" stroke="#454545" stroke-width="1.5"/>
<path d="M5.25 6V4.5" stroke="#454545" stroke-width="1.5" stroke-linecap="round" stroke-linejoin="round"/>
</svg>
