<svg width="24" height="24" viewBox="0 0 24 24" fill="none" xmlns="http://www.w3.org/2000/svg">
<path d="M20.4 9.62899L8.99996 2.80699C8.27422 2.35938 7.41697 2.17408 6.57115 2.282C5.72533 2.38991 4.94207 2.7845 4.35196 3.39999C3.75056 3.99643 3.37149 4.78079 3.27779 5.6226C3.1841 6.4644 3.38143 7.31291 3.83696 8.02699L6.29996 12L3.83696 15.972C3.38117 16.6862 3.18369 17.5349 3.27739 18.3769C3.37109 19.2189 3.75032 20.0035 4.35196 20.6C4.69995 20.9605 5.11666 21.2477 5.57747 21.4445C6.03829 21.6414 6.53387 21.7439 7.03496 21.746C7.72808 21.7439 8.40749 21.5527 8.99996 21.193L20.4 14.371C20.8106 14.1263 21.1507 13.7791 21.3868 13.3635C21.623 12.9479 21.7472 12.478 21.7472 12C21.7472 11.522 21.623 11.0521 21.3868 10.6365C21.1507 10.2209 20.8106 9.87369 20.4 9.62899ZM19.631 13.084L8.22696 19.906C7.7896 20.179 7.27132 20.2923 6.75993 20.2269C6.24855 20.1615 5.7755 19.9213 5.42096 19.547C5.05585 19.1903 4.8254 18.7183 4.76871 18.211C4.71202 17.7037 4.83259 17.1925 5.10996 16.764L7.59996 12.75H13C13.1989 12.75 13.3896 12.671 13.5303 12.5303C13.6709 12.3897 13.75 12.1989 13.75 12C13.75 11.8011 13.6709 11.6103 13.5303 11.4697C13.3896 11.329 13.1989 11.25 13 11.25H7.59996L5.10996 7.23599C4.83259 6.80751 4.71202 6.29625 4.76871 5.78898C4.8254 5.28171 5.05585 4.80968 5.42096 4.45299C5.84901 4.01434 6.43314 3.76272 7.04596 3.75299C7.46355 3.7574 7.87197 3.87602 8.22696 4.09599L19.634 10.918C19.8217 11.0299 19.9771 11.1886 20.0851 11.3786C20.193 11.5687 20.2497 11.7835 20.2497 12.002C20.2497 12.2205 20.193 12.4353 20.0851 12.6253C19.9771 12.8154 19.8217 12.9741 19.634 13.086L19.631 13.084Z" fill="#454545"/>
</svg>
